# xmcd
#
# Track frame offsets: 
#        150
#        4734
#        63913
#        102487
#        140511
#        183010
#
# Disc length: 2535 seconds
#
# Revision: 4
# Processed by: cddbd v1.5.2PL0 Copyright (c) Steve Scherf et al.
# Submitted via: ExactAudioCopy v0.95b4
#
DISCID=4709e506
DTITLE=Art Blakey and The Jazz Messengers - Meet You At The Jazz Corner 
DTITLE=Of The World [CD02)
DYEAR=1960
DGENRE=Jazz
TTITLE0=Announcement By Pee Wee Marquette and Art Blakey
TTITLE1=High Modes
TTITLE2=Night Watch
TTITLE3=The Things I Love
TTITLE4=The Summit
TTITLE5=The Theme
EXTD=YEAR: 1960
EXTT0=
EXTT1=
EXTT2=
EXTT3=
EXTT4=
EXTT5=
PLAYORDER=
